<?xml version="1.0" encoding="UTF-8"?>
<svg id="Livello_1" data-name="Livello 1" xmlns="http://www.w3.org/2000/svg" viewBox="0 0 503.39 206.57">
  <path d="M373.76,102.92c-3.87-8.95-8.59-23.74-10.8-31.55-2.21-7.81-2.8-13.42-2.36-22.12,.44-8.7,4.13-19.07,8.7-25.66,7.52-10.71,16.37-17.3,26.1-20.94,5.11-1.57,13.42-2.65,25.66-2.65s17.57,2.36,20.72,3.32c3.15,.96,12.62,5.83,17.43,9.86s12.04,12.58,14.96,16.29c2.92,3.71,10,16.24,10,16.24,0,0,3.54-6.49,7.37-7.08,3.83-.59,7.57,2.46,8.75,4.23s2.75,5.5,2.9,9.09,.45,7.79-.22,10.42-1.04,5.04-2.95,8.48c-2.48,4.47-7.15,9.24-7.81,12.83-1.18,6.34-1.25,12.75-3.02,24.55s-5.6,31.41-16.81,47.77c-2.95,4.87-10.98,14.3-14.74,17.4-3.76,3.1-10.32,7.81-17.1,12.09s-12.53,6.93-18.28,9.73-13.86,5.31-18.58,6.78-16.83,3.32-22.41,3.83c-5.58,.52-20.49,.74-24.84,.74s-19.02-2.36-22.78-3.46-11.57-4.35-16-6.63c-4.42-2.29-9.44-5.9-12.68-9.29s-6.99-8.65-8.04-10.69-2.73-6.19-2.73-6.19c0,0,14.3,8.4,18.65,10.25s9.8,2.51,16,2.95c6.19,.44,10.03,.07,16.73-.81s13.12-2.65,23-13.12,13.71-26.39,13.56-38.63c-.15-12.24-4.49-19.07-8.36-28.01l-.02-.02Z" fill="#fff"/>
  <ellipse cx="409.04" cy="58.61" rx="8.98" ry="11.63" transform="translate(34.53 233.22) rotate(-33.15)" fill="#2c2c2c"/>
  <ellipse cx="451.69" cy="46.2" rx="8.35" ry="11.63" transform="translate(48.25 254.52) rotate(-33.15)" fill="#2c2c2c"/>
  <path d="M435.5,79.28c.67-.44,5.49-.32,6.84-.77s4.41-2.4,5.99-2.48,2.85,.49,3.05,1.97,.78,4.78,.58,6.88-1.05,4.04-3.58,5.3-6,.71-6.78,.29c-.42-.22-2.58-1.82-3.79-3.3s-2-3.09-2.25-3.68c-.55-1.28-.72-3.78-.05-4.22h0Z" fill="#2c2c2c"/>
  <g>
    <path d="M140.55,17.82c-17.3,0-32.71,23-42.84,58.88-10.13-35.87-25.54-58.88-42.84-58.88C24.49,17.81,0,94.42,0,188.76H24.49c0-87.58,13.72-158.7,30.6-158.7s30.6,65.63,30.6,146.47h24.49c0-80.82,13.72-146.47,30.6-146.47s30.6,71.12,30.6,158.7h24.06c0-94.55-24.49-170.94-54.87-170.94h0Z" fill="#ffba0d"/>
    <g>
      <path d="M207.67,176.51c-3.38,0-6.11,2.54-6.11,6.11s2.75,6.11,6.11,6.11,6.11-2.54,6.11-6.11-2.75-6.11-6.11-6.11Zm0,11.19c-2.75,0-5.06-2.32-5.06-5.27s2.11-5.27,5.06-5.27c2.75,0,5.06,2.32,5.06,5.27,0,3.16-2.11,5.27-5.06,5.27Z" fill="#ffba0d"/>
      <path d="M210.62,180.94c0-1.27-.84-2.11-2.54-2.11h-2.75v7.17h1.05v-2.95h1.27l1.9,3.16h1.27l-2.11-3.16c1.05-.21,1.9-.63,1.9-2.11h.01Zm-2.95,1.27h-1.05v-2.32h1.48c.84,0,1.48,.21,1.48,1.05,0,1.27-1.05,1.27-1.9,1.27h-.01Z" fill="#ffba0d"/>
    </g>
  </g>
  <path d="M231.4,84.23c4.68,4.68,9.37,9.37,14.05,14.05,7.47,7.47,14.95,14.95,22.42,22.42l5.17,5.17c2.28,2.28,5.81-1.26,3.54-3.54-4.68-4.68-9.37-9.37-14.05-14.05-7.47-7.47-14.95-14.95-22.42-22.42l-5.17-5.17c-2.28-2.28-5.81,1.26-3.54,3.54h0Z" fill="#fff"/>
  <path d="M273.05,80.69c-4.68,4.68-9.37,9.37-14.05,14.05-7.47,7.47-14.95,14.95-22.42,22.42l-5.17,5.17c-2.28,2.28,1.26,5.81,3.54,3.54,4.68-4.68,9.37-9.37,14.05-14.05,7.47-7.47,14.95-14.95,22.42-22.42l5.17-5.17c2.28-2.28-1.26-5.81-3.54-3.54h0Z" fill="#fff"/>
</svg>