<?xml version="1.0" encoding="utf-8"?>
<!-- Generator: Adobe Illustrator 27.0.0, SVG Export Plug-In . SVG Version: 6.00 Build 0)  -->
<svg version="1.1" id="Livello_1" xmlns="http://www.w3.org/2000/svg" xmlns:xlink="http://www.w3.org/1999/xlink" x="0px" y="0px"
	 viewBox="0 0 50 50" style="enable-background:new 0 0 50 50;" xml:space="preserve">
<style type="text/css">
	.st0{fill:#FFFFFF;}
</style>
<path class="st0" d="M3,10c-1.6,0-3,1.4-3,3v20c0,1.6,1.4,3,3,3h25.2c0.9,5.1,5.4,9,10.8,9c6.1,0,11-4.9,11-11c0-3.4-1.6-6.4-4-8.5
	V13c0-1.6-1.4-3-3-3H3z M3,12h40c0.6,0,1,0.4,1,1v11.2c-1.5-0.8-3.2-1.2-5-1.2c0-1.7-1.3-3-3-3s-3,1.3-3,3c0,0.6,0.2,1.1,0.4,1.5
	C30.2,26.4,28,30,28,34H3c-0.6,0-1-0.4-1-1V13C2,12.4,2.4,12,3,12z M10,20c-1.7,0-3,1.3-3,3s1.3,3,3,3s3-1.3,3-3S11.7,20,10,20z
	 M23,20c-1.7,0-3,1.3-3,3s1.3,3,3,3s3-1.3,3-3S24.7,20,23,20z M39,25c5,0,9,4,9,9s-4,9-9,9s-9-4-9-9S34,25,39,25z M43.9,30
	c-0.2,0-0.4,0.1-0.6,0.3L38,35.6l-2.3-2.3c-0.4-0.4-1-0.4-1.4,0s-0.4,1,0,1.4l3,3c0.4,0.4,1,0.4,1.4,0c0,0,0,0,0,0l6-6
	c0.4-0.4,0.4-1,0.1-1.4C44.5,30.1,44.2,29.9,43.9,30z"/>
</svg>
